<svg id="Ebene_1" data-name="Ebene 1" xmlns="http://www.w3.org/2000/svg" xmlns:xlink="http://www.w3.org/1999/xlink" viewBox="0 0 675.64 171.02"><defs><style>.cls-1{fill:none;}.cls-2{clip-path:url(#clip-path);}.cls-3{fill:#1d1d1b;}</style><clipPath id="clip-path" transform="translate(-100.36 -147.26)"><rect class="cls-1" x="100.36" y="147.27" width="675.64" height="171.01"/></clipPath></defs><title>Logo HSAS- NEUE Unterzeile 2018</title><g class="cls-2"><path class="cls-3" d="M180.46,294.16l-10.81-2.83v-17.2c-20.07-8-28.61-15.78-28.61-15.78a72.61,72.61,0,0,0-8.28,16.43c8.65,17.88,23.95,29.72,45.12,32.54a61.09,61.09,0,0,0,68.59-52.5c2.06-15.48-.43-32.46-15.29-49.6a28.06,28.06,0,0,0-7.1-.26,40.18,40.18,0,0,0-16.73,5.52c-3.89,2.53-6.21,5.82-6.78,10.08a9.62,9.62,0,0,0,1.23,6.31c1.12,1.92,3.36,3.54,6.71,4.87q3.22,1.23,8.59,3.07t9,3.34q7.1,3,10.4,7.52A14.14,14.14,0,0,1,239,256.26a22.67,22.67,0,0,1-3.84,9.83,25.65,25.65,0,0,1-8.12,7.72,36.67,36.67,0,0,1-12,4.55A74.3,74.3,0,0,1,199.77,280a76.71,76.71,0,0,1-14.36-1.81s-2.45-.5-4.94-1.31" transform="translate(-100.36 -147.26)"/><path class="cls-3" d="M180.46,267.91c2.4.94,3.26,1.1,8.15,2.16a73.88,73.88,0,0,0,13.32,1.69c7.38,0,13.79-1.23,18.12-3.63s6.8-5.89,7.4-10.43a8.83,8.83,0,0,0-1.32-6.28,12.68,12.68,0,0,0-5.7-4.36c-2.18-.92-4.79-1.88-7.82-2.86s-5.91-2-8.64-3q-7.93-2.9-11.83-7.92a15,15,0,0,1-3-11.59c1-7.38,5.54-14.07,12.11-18.51,6.37-3.77,10.35-5.65,19.38-7-7.15-5-13.22-8.13-26.64-9.94a61.07,61.07,0,0,0-66.87,77.06s13.05-35.51,53.35-55.34v6.46" transform="translate(-100.36 -147.26)"/><path class="cls-3" d="M169.67,264.55V226.4s-10.93,6.49-23.74,23.88c1.64,2.73,12,9.81,23.72,14.26" transform="translate(-100.36 -147.26)"/><path class="cls-3" d="M114.86,246.72a71.11,71.11,0,0,1,66.35-70.9V147.26a86,86,0,0,0-80.85,85.79c0,45.46,35.34,82.18,80.08,85.23l.13-.72a71.11,71.11,0,0,1-65.7-70.85" transform="translate(-100.36 -147.26)"/></g><polygon class="cls-3" points="192.91 43.06 187.4 43.06 187.4 52.41 179.01 52.41 179.01 43.06 173.54 43.06 173.54 67.36 179.01 67.36 179.01 57.22 187.4 57.22 187.4 67.36 192.91 67.36 192.91 43.06"/><g class="cls-2"><path class="cls-3" d="M306.1,195.69c-4.69,0-9,3.54-9,9.69s4.32,9.69,9,9.69,9-3.54,9-9.69-4.32-9.69-9-9.69m0,14.94c-2.27,0-3.39-2.05-3.39-5.25s1.12-5.25,3.39-5.25,3.39,2.05,3.39,5.25-1.16,5.25-3.39,5.25" transform="translate(-100.36 -147.26)"/><path class="cls-3" d="M327.38,195.69a9.29,9.29,0,0,0-9.61,9.69c0,6.15,4,9.69,9.13,9.69a9.58,9.58,0,0,0,6.15-2.31l-2.2-3.46a5.32,5.32,0,0,1-3.31,1.34c-2.39,0-4.14-2.05-4.14-5.25s1.68-5.25,4.32-5.25a4,4,0,0,1,2.57,1.08l2.5-3.38a7.46,7.46,0,0,0-5.4-2.13" transform="translate(-100.36 -147.26)"/><path class="cls-3" d="M341.48,188.5H336v26.12h5.48V202.13c1.19-1.15,2.05-1.79,3.43-1.79,1.57,0,2.27.82,2.27,3.5v10.77h5.48V203.15c0-4.63-1.71-7.46-5.74-7.46a8.5,8.5,0,0,0-5.7,2.53l.26-3.31Z" transform="translate(-100.36 -147.26)"/><path class="cls-3" d="M363.66,195.69c-4.29,0-7.08,2.35-7.08,5.78,0,3.06,2.65,4.58,4.88,5.44,1.9.74,3.76,1.3,3.76,2.53,0,1-.71,1.56-2.35,1.56a8,8,0,0,1-4.77-1.93l-2.46,3.43a11.93,11.93,0,0,0,7.08,2.57c5,0,7.6-2.61,7.6-6s-2.64-4.69-5-5.55c-1.9-.7-3.61-1.15-3.61-2.35,0-.93.67-1.45,2.08-1.45a6.83,6.83,0,0,1,3.92,1.57l2.46-3.28a10.64,10.64,0,0,0-6.52-2.35" transform="translate(-100.36 -147.26)"/><path class="cls-3" d="M382.36,195.69a9.29,9.29,0,0,0-9.61,9.69c0,6.15,4,9.69,9.13,9.69a9.58,9.58,0,0,0,6.15-2.31l-2.2-3.46a5.31,5.31,0,0,1-3.31,1.34c-2.38,0-4.14-2.05-4.14-5.25s1.68-5.25,4.32-5.25a4,4,0,0,1,2.57,1.08l2.5-3.38a7.44,7.44,0,0,0-5.4-2.13" transform="translate(-100.36 -147.26)"/><path class="cls-3" d="M396.45,188.5H391v26.12h5.48V202.13c1.19-1.15,2.05-1.79,3.43-1.79,1.57,0,2.27.82,2.27,3.5v10.77h5.48V203.15c0-4.63-1.71-7.46-5.74-7.46a8.5,8.5,0,0,0-5.7,2.53l.26-3.31Z" transform="translate(-100.36 -147.26)"/><path class="cls-3" d="M428.62,196.14h-5.48v12.22c-1.08,1.45-1.9,2.05-3.28,2.05-1.6,0-2.31-.85-2.31-3.5V196.14h-5.47v11.48c0,4.62,1.71,7.46,5.73,7.46a7.21,7.21,0,0,0,5.81-3h.11l.41,2.58h4.47Z" transform="translate(-100.36 -147.26)"/><path class="cls-3" d="M438.69,188.5h-5.48v20.38c0,3.73,1.27,6.19,5,6.19a7.14,7.14,0,0,0,2.76-.45l-.67-4.06a2.37,2.37,0,0,1-.67.07c-.45,0-1-.37-1-1.53Z" transform="translate(-100.36 -147.26)"/><path class="cls-3" d="M451.33,195.69c-4.43,0-8.72,3.69-8.72,9.69s4.06,9.69,9.35,9.69a12.08,12.08,0,0,0,6.56-2.09l-1.82-3.32a7.41,7.41,0,0,1-4,1.23,4.48,4.48,0,0,1-4.81-4H459a10.79,10.79,0,0,0,.22-2.32c0-5-2.61-8.87-7.86-8.87m-3.46,7.79c.37-2.46,1.86-3.62,3.58-3.62,2.19,0,3.09,1.49,3.09,3.62Z" transform="translate(-100.36 -147.26)"/><path class="cls-3" d="M286.14,236.71h-6.6l-7.6,24.3h5.59l1.49-5.78h7.41l1.49,5.78h5.81Zm-6,14.23.6-2.24c.67-2.42,1.31-5.25,1.9-7.82h.15c.64,2.53,1.31,5.4,2,7.82l.56,2.24Z" transform="translate(-100.36 -147.26)"/><path class="cls-3" d="M301.5,234.88H296v20.39c0,3.73,1.27,6.18,5,6.18a7.15,7.15,0,0,0,2.76-.45l-.67-4.06a2.28,2.28,0,0,1-.67.08c-.45,0-1-.37-1-1.53Z" transform="translate(-100.36 -147.26)"/><path class="cls-3" d="M312.17,234.88h-5.48V261H311l.45-1.94h.15a6.72,6.72,0,0,0,4.81,2.38c4,0,7.78-3.65,7.78-10,0-5.66-2.79-9.35-7.26-9.35a7.53,7.53,0,0,0-4.88,2.05l.15-2.83Zm2.94,22.1a4.26,4.26,0,0,1-2.94-1.19v-7.57a4.2,4.2,0,0,1,3.17-1.68c2.2,0,3.2,1.68,3.2,5,0,3.8-1.53,5.44-3.43,5.44" transform="translate(-100.36 -147.26)"/><path class="cls-3" d="M334.24,242.08c-4.29,0-7.08,2.35-7.08,5.78,0,3.06,2.65,4.58,4.88,5.44,1.9.75,3.76,1.3,3.76,2.53,0,1-.71,1.57-2.35,1.57a8,8,0,0,1-4.77-1.94l-2.46,3.43a11.92,11.92,0,0,0,7.08,2.57c5,0,7.6-2.61,7.6-6s-2.64-4.69-5-5.55c-1.9-.71-3.61-1.15-3.61-2.35,0-.93.67-1.45,2.08-1.45a6.82,6.82,0,0,1,3.92,1.56l2.46-3.28a10.64,10.64,0,0,0-6.52-2.35" transform="translate(-100.36 -147.26)"/><path class="cls-3" d="M350.6,237.61h-4.55l-.63,4.92-2.83.22v4.06h2.53v7.49c0,4.28,1.79,7.15,6.37,7.15a13.42,13.42,0,0,0,4.1-.67l-.85-4a5.28,5.28,0,0,1-1.76.37c-1.45,0-2.38-.85-2.38-2.94v-7.42H355v-4.28H350.6Z" transform="translate(-100.36 -147.26)"/><path class="cls-3" d="M366.41,242.08a15.25,15.25,0,0,0-7.9,2.43l1.94,3.61a9.92,9.92,0,0,1,4.92-1.67,2.57,2.57,0,0,1,2.91,2.68c-7.3.75-10.39,2.87-10.39,6.74a5.31,5.31,0,0,0,5.48,5.59,8.13,8.13,0,0,0,5.4-2.35h.11l.41,1.9h4.48V250.42c0-5.66-2.61-8.35-7.35-8.35m-1.19,15.13c-1.3,0-2.12-.56-2.12-1.75,0-1.41,1.26-2.53,5.18-3.06v3.24a4.12,4.12,0,0,1-3.06,1.57" transform="translate(-100.36 -147.26)"/><path class="cls-3" d="M395,234.88h-5.48v6.3l.22,2.84a6.06,6.06,0,0,0-4.55-1.95c-3.91,0-7.67,3.65-7.67,9.69s3,9.69,7.56,9.69a7.32,7.32,0,0,0,4.92-2.27h.15l.37,1.83H395Zm-8.5,22.1c-2.12,0-3.35-1.64-3.35-5.29s1.57-5.14,3.31-5.14a4.38,4.38,0,0,1,3.06,1.2v7.56a3.47,3.47,0,0,1-3,1.68" transform="translate(-100.36 -147.26)"/><path class="cls-3" d="M406.09,237.61h-4.54l-.63,4.92-2.83.22v4.06h2.53v7.49c0,4.28,1.79,7.15,6.37,7.15a13.4,13.4,0,0,0,4.1-.67l-.86-4a5.25,5.25,0,0,1-1.76.37c-1.45,0-2.38-.85-2.38-2.94v-7.42h4.44v-4.28h-4.44Z" transform="translate(-100.36 -147.26)"/></g><rect class="cls-3" x="313.31" y="102.38" width="9.17" height="3.88"/><g class="cls-2"><path class="cls-3" d="M434.83,236.26c-5.06,0-8.65,3.21-8.65,7.23,0,3.54,2.39,5.62,4.89,6.63l3.17,1.34c2.12.89,3.5,1.38,3.5,2.9s-1.11,2.35-3.39,2.35a9.86,9.86,0,0,1-6-2.53l-3.12,3.76a13.26,13.26,0,0,0,9,3.5c5.81,0,9.17-3.5,9.17-7.52,0-3.43-1.87-5.4-4.81-6.6l-3.13-1.27c-2.08-.85-3.69-1.38-3.69-2.86s1.2-2.2,3.09-2.2a7.89,7.89,0,0,1,5,1.94l2.79-3.46a11.25,11.25,0,0,0-7.82-3.21" transform="translate(-100.36 -147.26)"/><path class="cls-3" d="M449.78,234.1a2.9,2.9,0,0,0-3.17,2.83,3.18,3.18,0,0,0,6.33,0,2.88,2.88,0,0,0-3.17-2.83m2.75,8.42h-5.47V261h5.47Z" transform="translate(-100.36 -147.26)"/><path class="cls-3" d="M463.8,242.08c-4,0-7.64,2.24-7.64,6.67a5.92,5.92,0,0,0,2.5,4.81v.15a4.46,4.46,0,0,0-2.09,3.46,3.54,3.54,0,0,0,1.72,3.13v.16c-1.72,1-2.64,2.19-2.64,3.72,0,3.28,3.43,4.69,7.75,4.69,6.34,0,10.32-2.79,10.32-6.63,0-3.32-2.5-4.69-7-4.69h-3c-2,0-2.79-.45-2.79-1.38a1.57,1.57,0,0,1,.67-1.38,7.4,7.4,0,0,0,2.24.38c4.06,0,7.26-2,7.26-6.23a5,5,0,0,0-.59-2.43h2.94v-4h-6.74a8.6,8.6,0,0,0-2.87-.45m0,9.76c-1.46,0-2.54-1-2.54-3.09s1.08-3,2.54-3,2.53,1,2.53,3-1.08,3.09-2.53,3.09m.44,13.6c-2.46,0-4.1-.75-4.1-2.12a2.41,2.41,0,0,1,1-1.83,10.81,10.81,0,0,0,2.61.22h1.9c1.83,0,2.83.3,2.83,1.45s-1.79,2.27-4.25,2.27" transform="translate(-100.36 -147.26)"/><path class="cls-3" d="M498,242.08c-2.46,0-4.18,1.42-5.81,3.09a5.12,5.12,0,0,0-5.11-3.09c-2.42,0-4.06,1.3-5.59,2.83h-.14l-.38-2.38h-4.46V261H482V248.53a4.83,4.83,0,0,1,3.13-1.79c1.57,0,2.28.82,2.28,3.5V261h5.47V248.53a4.89,4.89,0,0,1,3.17-1.79c1.57,0,2.28.82,2.28,3.5V261h5.47V249.53c0-4.62-1.79-7.45-5.77-7.45" transform="translate(-100.36 -147.26)"/><path class="cls-3" d="M516.13,242.08a15.27,15.27,0,0,0-7.9,2.43l1.94,3.61a9.93,9.93,0,0,1,4.92-1.67,2.57,2.57,0,0,1,2.9,2.68c-7.3.75-10.4,2.87-10.4,6.74a5.31,5.31,0,0,0,5.48,5.59,8.14,8.14,0,0,0,5.41-2.35h.11L519,261h4.46V250.42c0-5.66-2.6-8.35-7.33-8.35m-1.2,15.13c-1.31,0-2.13-.56-2.13-1.75,0-1.41,1.27-2.53,5.18-3.06v3.24a4.12,4.12,0,0,1-3.06,1.57" transform="translate(-100.36 -147.26)"/><path class="cls-3" d="M538.35,242.08c-1.9,0-3.91,1.2-5.25,3.69H533l-.37-3.24h-4.48V261h5.47V250.27c1-2.49,2.69-3.39,4.07-3.39a6.76,6.76,0,0,1,2,.3l.9-4.73a5.33,5.33,0,0,0-2.2-.37" transform="translate(-100.36 -147.26)"/><path class="cls-3" d="M545.8,234.1a2.9,2.9,0,0,0-3.17,2.83,3.18,3.18,0,0,0,6.34,0,2.88,2.88,0,0,0-3.17-2.83m2.75,8.42h-5.47V261h5.47Z" transform="translate(-100.36 -147.26)"/><path class="cls-3" d="M564.19,242.08a8.51,8.51,0,0,0-5.92,2.8h-.15l-.37-2.35h-4.47V261h5.47V248.53c1.2-1.16,2.05-1.79,3.43-1.79,1.57,0,2.28.82,2.28,3.5V261h5.48V249.53c0-4.62-1.72-7.45-5.74-7.45" transform="translate(-100.36 -147.26)"/><path class="cls-3" d="M581,242.08c-4,0-7.63,2.24-7.63,6.67a5.91,5.91,0,0,0,2.49,4.81v.15a4.46,4.46,0,0,0-2.09,3.46,3.54,3.54,0,0,0,1.72,3.13v.16c-1.72,1-2.64,2.19-2.64,3.72,0,3.28,3.43,4.69,7.75,4.69,6.34,0,10.32-2.79,10.32-6.63,0-3.32-2.5-4.69-7-4.69h-3c-2.05,0-2.8-.45-2.8-1.38a1.57,1.57,0,0,1,.68-1.38,7.35,7.35,0,0,0,2.23.38c4.07,0,7.27-2,7.27-6.23a5,5,0,0,0-.59-2.43h2.94v-4h-6.74a8.61,8.61,0,0,0-2.88-.45m0,9.76c-1.45,0-2.53-1-2.53-3.09s1.08-3,2.53-3,2.54,1,2.54,3-1.08,3.09-2.54,3.09m.45,13.6c-2.45,0-4.1-.75-4.1-2.12a2.43,2.43,0,0,1,1-1.83,10.94,10.94,0,0,0,2.61.22h1.9c1.83,0,2.83.3,2.83,1.45s-1.79,2.27-4.25,2.27" transform="translate(-100.36 -147.26)"/><path class="cls-3" d="M601.29,242.08c-4.44,0-8.72,3.69-8.72,9.69s4.06,9.69,9.35,9.69a12.09,12.09,0,0,0,6.56-2.09L606.65,256a7.44,7.44,0,0,1-4,1.23,4.47,4.47,0,0,1-4.8-4h11.06a10.42,10.42,0,0,0,.23-2.31c0-5-2.61-8.87-7.86-8.87m-3.46,7.79c.37-2.46,1.87-3.62,3.57-3.62,2.2,0,3.09,1.49,3.09,3.62Z" transform="translate(-100.36 -147.26)"/><path class="cls-3" d="M623.87,242.08a8.49,8.49,0,0,0-5.92,2.8h-.15l-.37-2.35H613V261h5.48V248.53c1.19-1.16,2.05-1.79,3.43-1.79,1.57,0,2.27.82,2.27,3.5V261h5.48V249.53c0-4.62-1.71-7.45-5.74-7.45" transform="translate(-100.36 -147.26)"/><path class="cls-3" d="M760.77,312l-.6,2.44a6.11,6.11,0,0,0,2.14.37c3.68,0,5.55-2.74,6.83-6.34L776,288.76h-3l-3.26,10.1c-.49,1.61-1,3.49-1.54,5.14H768c-.56-1.69-1.2-3.57-1.76-5.14l-3.72-10.1h-3.19L766.69,307l-.41,1.35c-.75,2.25-2.06,3.9-4.13,3.9a5.29,5.29,0,0,1-1.39-.27m-10.92-10.66c0,3.6,1.31,6.08,5.22,6.08a11.17,11.17,0,0,0,3.38-.68l-.6-2.32a6.65,6.65,0,0,1-2.06.49c-2.1,0-2.81-1.28-2.81-3.53V291.27h4.91v-2.51H753v-5.1h-2.59l-.38,5.1-2.85.19v2.33h2.7ZM740.09,307h3.08V288.76h-3.08Zm1.58-22a2,2,0,0,0,2.14-2,2.14,2.14,0,0,0-4.28,0,2,2,0,0,0,2.14,2m-19.33,19.93a11,11,0,0,0,6.8,2.51c4.32,0,6.68-2.48,6.68-5.44,0-3.45-2.93-4.54-5.55-5.52-2.06-.79-4.05-1.43-4.05-3.15,0-1.39,1.05-2.63,3.34-2.63a6.77,6.77,0,0,1,4.16,1.62l1.47-2a9.12,9.12,0,0,0-5.67-2.06c-3.94,0-6.27,2.25-6.27,5.18,0,3.08,2.85,4.32,5.44,5.25,2,.75,4.16,1.57,4.16,3.45,0,1.57-1.2,2.85-3.6,2.85a8.19,8.19,0,0,1-5.36-2.18ZM711.72,307h3.08V295.29c1.24-3.08,3.08-4.2,4.61-4.2a5.08,5.08,0,0,1,1.76.3l.6-2.7a4.57,4.57,0,0,0-2-.37c-2.06,0-3.94,1.47-5.18,3.75h-.11l-.26-3.3h-2.55Zm-17-10.47c.37-3.68,2.7-5.78,5.25-5.78,2.85,0,4.5,2.07,4.5,5.78Zm-3,1.39c0,6,3.86,9.53,8.74,9.53a10.85,10.85,0,0,0,6-1.88l-1.09-2a8.23,8.23,0,0,1-4.54,1.43c-3.49,0-5.86-2.48-6.08-6.42H707.1a11.34,11.34,0,0,0,.11-1.69c0-5.22-2.63-8.55-7.28-8.55-4.16,0-8.18,3.64-8.18,9.61M680.42,307H684l6.45-18.24h-3L684,299.12c-.53,1.8-1.13,3.64-1.65,5.37h-.15c-.56-1.73-1.16-3.57-1.69-5.37L677,288.76h-3.19Zm-13.17,0h3.08V288.76h-3.08Zm1.58-22a2,2,0,0,0,2.14-2,2.14,2.14,0,0,0-4.28,0,2,2,0,0,0,2.14,2m-21.35,22h3.08V293.79c1.84-1.84,3.12-2.81,5-2.81,2.4,0,3.45,1.46,3.45,4.88V307h3.08V295.44c0-4.66-1.73-7.13-5.55-7.13-2.51,0-4.39,1.35-6.12,3.08h-.11l-.26-2.63h-2.55Zm-24-10.17c0,7.92,3.83,10.62,8.86,10.62s8.82-2.7,8.82-10.62V282.38h-3V296.9c0,5.93-2.56,7.81-5.82,7.81s-5.74-1.87-5.74-7.81V282.38h-3.12ZM595.16,307h3.07V293.79c1.84-1.84,3.12-2.81,5-2.81,2.4,0,3.45,1.46,3.45,4.88V307h3.08V295.44c0-4.66-1.73-7.13-5.55-7.13-2.51,0-4.39,1.35-6.12,3.08H598l-.26-2.63h-2.55Zm-17-10.47c.37-3.68,2.7-5.78,5.25-5.78,2.85,0,4.5,2.07,4.5,5.78Zm-3,1.39c0,6,3.86,9.53,8.74,9.53a10.86,10.86,0,0,0,6-1.88l-1.09-2a8.24,8.24,0,0,1-4.54,1.43c-3.49,0-5.86-2.48-6.08-6.42h12.31a10.75,10.75,0,0,0,.11-1.69c0-5.22-2.63-8.55-7.28-8.55-4.17,0-8.18,3.64-8.18,9.61m-10.88,1.24c-2.11,0-3.86-1.69-3.86-4.35s1.73-4.24,3.86-4.24,3.86,1.57,3.86,4.24-1.76,4.35-3.86,4.35m-7.54,11.33c0,3.15,3.08,4.92,7.54,4.92,5.67,0,9.23-2.93,9.23-6.31,0-3-2.14-4.35-6.38-4.35h-3.53c-2.48,0-3.22-.83-3.22-2a2.75,2.75,0,0,1,1.16-2.18,6.38,6.38,0,0,0,2.74.64c3.71,0,6.68-2.44,6.68-6.34a5.3,5.3,0,0,0-1.5-3.76h3.75v-2.36H566.9a7.34,7.34,0,0,0-2.59-.45c-3.72,0-6.87,2.51-6.87,6.49a6.47,6.47,0,0,0,2.37,4.92v.15a4.27,4.27,0,0,0-2,3.38,3.37,3.37,0,0,0,1.61,3v.15a5.27,5.27,0,0,0-2.66,4.13m2.7-.41a3.85,3.85,0,0,1,1.87-3.08,9,9,0,0,0,2.37.3h3.15c2.36,0,3.68.56,3.68,2.25,0,1.92-2.29,3.71-5.78,3.71-3.3,0-5.29-1.24-5.29-3.19M537.63,307h3.08V293.79c1.84-1.84,3.12-2.81,5-2.81,2.4,0,3.45,1.46,3.45,4.88V307h3.07V295.44c0-4.66-1.73-7.13-5.55-7.13-2.51,0-4.39,1.35-6.12,3.08h-.11l-.27-2.63h-2.55Zm-9.23,0h3.08V288.76H528.4ZM530,285a2,2,0,0,0,2.14-2,2.14,2.14,0,0,0-4.28,0,2,2,0,0,0,2.14,2m-14.6,22h3.07V295.29c1.24-3.08,3.08-4.2,4.62-4.2a5.08,5.08,0,0,1,1.76.3l.6-2.7a4.54,4.54,0,0,0-1.95-.37c-2.06,0-3.94,1.47-5.18,3.75h-.11l-.26-3.3h-2.55Zm-17.08-5c0-2.32,2.06-3.83,8.18-4.58v5.06c-1.76,1.58-3.22,2.44-5,2.44s-3.19-.86-3.19-2.93m-3,.23c0,3.26,2.29,5.18,5.37,5.18a9.91,9.91,0,0,0,6-2.63h.08L507,307h2.55V295.81c0-4.54-1.88-7.51-6.34-7.51a13.52,13.52,0,0,0-7.17,2.37l1.24,2.14a9.81,9.81,0,0,1,5.44-2c3,0,3.75,2.25,3.75,4.58-7.77.86-11.22,2.85-11.22,6.83M465.06,307h3.07V293.79c1.69-1.87,3.23-2.81,4.58-2.81,2.33,0,3.41,1.46,3.41,4.88V307h3.08V293.79c1.69-1.87,3.15-2.81,4.58-2.81,2.29,0,3.38,1.46,3.38,4.88V307h3.08V295.44c0-4.66-1.8-7.13-5.56-7.13-2.21,0-4.09,1.43-6,3.49a4.79,4.79,0,0,0-5-3.49c-2.18,0-4.09,1.35-5.67,3.08h-.11l-.26-2.63h-2.55Zm-12.76-7.84c-2.1,0-3.86-1.69-3.86-4.35s1.73-4.24,3.86-4.24,3.86,1.57,3.86,4.24-1.76,4.35-3.86,4.35m-7.54,11.33c0,3.15,3.08,4.92,7.54,4.92,5.67,0,9.23-2.93,9.23-6.31,0-3-2.14-4.35-6.38-4.35h-3.53c-2.48,0-3.22-.83-3.22-2a2.76,2.76,0,0,1,1.16-2.18,6.38,6.38,0,0,0,2.74.64c3.71,0,6.68-2.44,6.68-6.34a5.3,5.3,0,0,0-1.5-3.76h3.75v-2.36h-6.34a7.3,7.3,0,0,0-2.59-.45c-3.72,0-6.87,2.51-6.87,6.49a6.46,6.46,0,0,0,2.36,4.92v.15a4.27,4.27,0,0,0-2,3.38,3.37,3.37,0,0,0,1.61,3v.15a5.27,5.27,0,0,0-2.66,4.13m2.7-.41a3.84,3.84,0,0,1,1.88-3.08,9,9,0,0,0,2.36.3h3.15c2.37,0,3.68.56,3.68,2.25,0,1.92-2.29,3.71-5.78,3.71-3.3,0-5.29-1.24-5.29-3.19M436.91,307H440V288.76h-3.08Zm1.58-22a2,2,0,0,0,2.14-2,2.14,2.14,0,0,0-4.28,0,2,2,0,0,0,2.14,2m-23.12,18.8a11.94,11.94,0,0,0,8.63,3.64c5.18,0,8.37-3.12,8.37-7,0-3.64-2.21-5.33-5.06-6.57l-3.49-1.5c-2-.83-4.09-1.73-4.09-4.09,0-2.21,1.84-3.6,4.58-3.6A7.85,7.85,0,0,1,429.9,287l1.69-2a10.21,10.21,0,0,0-7.28-3c-4.47,0-7.73,2.77-7.73,6.53,0,3.6,2.66,5.36,5,6.34l3.53,1.54c2.32,1.05,4.09,1.84,4.09,4.35s-1.91,4-5.14,4a9.64,9.64,0,0,1-6.79-3.08ZM394,301.37c0,3.6,1.31,6.08,5.22,6.08a11.12,11.12,0,0,0,3.38-.68l-.6-2.32a6.7,6.7,0,0,1-2.06.49c-2.11,0-2.82-1.28-2.82-3.53V291.27H402v-2.51h-4.92v-5.1h-2.59l-.37,5.1-2.85.19v2.33H394Zm-19.48-3.49c0-4.16,2.33-7,5.25-7a6.35,6.35,0,0,1,4.43,1.92v9.53c-1.5,1.69-3,2.51-4.65,2.51-3.19,0-5-2.63-5-7m-3.19,0c0,6.08,3,9.53,7.54,9.53a8.22,8.22,0,0,0,5.52-2.59h.11l.27,2.14h2.55V280.28h-3.12v7l.15,3.12a7.51,7.51,0,0,0-5.1-2.1c-4.16,0-7.92,3.68-7.92,9.61M355.59,302c0-2.32,2.06-3.83,8.18-4.58v5.06c-1.76,1.58-3.23,2.44-5,2.44s-3.19-.86-3.19-2.93m-3,.23c0,3.26,2.29,5.18,5.36,5.18a9.91,9.91,0,0,0,6-2.63H364l.27,2.18h2.55V295.81c0-4.54-1.88-7.51-6.34-7.51a13.51,13.51,0,0,0-7.17,2.37l1.24,2.14a9.81,9.81,0,0,1,5.44-2c3,0,3.75,2.25,3.75,4.58-7.77.86-11.22,2.85-11.22,6.83m-10.58-.9c0,3.6,1.31,6.08,5.22,6.08a11.15,11.15,0,0,0,3.38-.68l-.6-2.32a6.7,6.7,0,0,1-2.07.49c-2.1,0-2.81-1.28-2.81-3.53V291.27H350v-2.51h-4.92v-5.1h-2.59l-.37,5.1-2.85.19v2.33H342Zm-18.28,3.57a11,11,0,0,0,6.8,2.51c4.32,0,6.68-2.48,6.68-5.44,0-3.45-2.93-4.54-5.55-5.52-2.06-.79-4.05-1.43-4.05-3.15,0-1.39,1.05-2.63,3.34-2.63a6.77,6.77,0,0,1,4.16,1.62l1.47-2a9.12,9.12,0,0,0-5.67-2.06c-3.94,0-6.27,2.25-6.27,5.18,0,3.08,2.85,4.32,5.44,5.25,2,.75,4.16,1.57,4.16,3.45,0,1.57-1.2,2.85-3.6,2.85a8.19,8.19,0,0,1-5.36-2.18Zm-15.72-2v-9.57c1.73-1.61,3.34-2.48,4.88-2.48,3.45,0,4.8,2.7,4.8,6.72,0,4.5-2.21,7.24-5.22,7.24a7.13,7.13,0,0,1-4.46-1.92M304.89,307h2.48l.26-1.8h.11a8.25,8.25,0,0,0,5.22,2.25c4.16,0,7.88-3.64,7.88-9.87,0-5.63-2.51-9.27-7.24-9.27a9,9,0,0,0-5.7,2.55l.08-3.3v-7.28h-3.08Zm-9.57-3.68c0,2.66.94,4.13,3.26,4.13a4.19,4.19,0,0,0,1.76-.3l-.41-2.33a2.55,2.55,0,0,1-.67.08c-.45,0-.86-.37-.86-1.35V280.28h-3.08ZM288.79,307h3.34l-8.33-24.62h-3.53L271.95,307h3.19l2.37-7.51h9Zm-10.51-10,1.16-3.75c.9-2.74,1.69-5.44,2.44-8.29H282c.79,2.85,1.58,5.55,2.48,8.29l1.16,3.75Z" transform="translate(-100.36 -147.26)"/></g><rect class="cls-3" x="304.52" y="149.15" width="8.63" height="2.37"/></svg>